<?xml version="1.0" encoding="UTF-8" standalone="no"?>
<!DOCTYPE svg PUBLIC "-//W3C//DTD SVG 1.1//EN"
 "http://www.w3.org/Graphics/SVG/1.1/DTD/svg11.dtd">
<!-- Generated by graphviz version 2.44.0 (0)
 -->
<!-- Title: G Pages: 1 -->
<svg width="3017pt" height="316pt"
 viewBox="0.00 0.00 3017.00 316.00" xmlns="http://www.w3.org/2000/svg" xmlns:xlink="http://www.w3.org/1999/xlink">
<g id="graph0" class="graph" transform="scale(1 1) rotate(0) translate(4 312)">
<title>G</title>
<polygon fill="white" stroke="transparent" points="-4,4 -4,-312 3013,-312 3013,4 -4,4"/>
<!-- inputs_availability -->
<g id="node1" class="node">
<title>inputs_availability</title>
<path fill="#fff7e6" stroke="#6b7280" d="M109,-192C109,-192 12,-192 12,-192 6,-192 0,-186 0,-180 0,-180 0,-168 0,-168 0,-162 6,-156 12,-156 12,-156 109,-156 109,-156 115,-156 121,-162 121,-168 121,-168 121,-180 121,-180 121,-186 115,-192 109,-192"/>
<text text-anchor="middle" x="60.5" y="-171.5" font-family="Helvetica" font-size="10.00">输入与 availability mask</text>
</g>
<!-- modality_stems_encoders -->
<g id="node2" class="node">
<title>modality_stems_encoders</title>
<path fill="#fff7e6" stroke="#6b7280" d="M415,-192C415,-192 329,-192 329,-192 323,-192 317,-186 317,-180 317,-180 317,-168 317,-168 317,-162 323,-156 329,-156 329,-156 415,-156 415,-156 421,-156 427,-162 427,-168 427,-168 427,-180 427,-180 427,-186 421,-192 415,-192"/>
<text text-anchor="middle" x="372" y="-171.5" font-family="Helvetica" font-size="10.00">模态 stems/encoders</text>
</g>
<!-- inputs_availability&#45;&gt;modality_stems_encoders -->
<g id="edge1" class="edge">
<title>inputs_availability&#45;&gt;modality_stems_encoders</title>
<path fill="none" stroke="#6b7280" d="M121.17,-174C174.39,-174 252.11,-174 306.69,-174"/>
<polygon fill="#6b7280" stroke="#6b7280" points="306.95,-177.5 316.95,-174 306.95,-170.5 306.95,-177.5"/>
<text text-anchor="middle" x="180" y="-176.8" font-family="Helvetica" font-size="9.00">availability 控制输入</text>
</g>
<!-- retrieval_dictionary -->
<g id="node3" class="node">
<title>retrieval_dictionary</title>
<path fill="#fff7e6" stroke="#6b7280" d="M922,-196C922,-196 822,-196 822,-196 816,-196 810,-190 810,-184 810,-184 810,-172 810,-172 810,-166 816,-160 822,-160 822,-160 922,-160 922,-160 928,-160 934,-166 934,-172 934,-172 934,-184 934,-184 934,-190 928,-196 922,-196"/>
<text text-anchor="middle" x="872" y="-175.5" font-family="Helvetica" font-size="10.00">检索 dictionary 与表示槽</text>
</g>
<!-- modality_stems_encoders&#45;&gt;retrieval_dictionary -->
<g id="edge2" class="edge">
<title>modality_stems_encoders&#45;&gt;retrieval_dictionary</title>
<path fill="none" stroke="#6b7280" d="M427.24,-174.44C517.66,-175.16 699.18,-176.62 799.78,-177.43"/>
<polygon fill="#6b7280" stroke="#6b7280" points="799.82,-180.93 809.85,-177.51 799.88,-173.93 799.82,-180.93"/>
<text text-anchor="middle" x="610" y="-178.8" font-family="Helvetica" font-size="9.00">模态特征</text>
</g>
<!-- router_pattern_sip -->
<g id="node4" class="node">
<title>router_pattern_sip</title>
<path fill="#fff7e6" stroke="#6b7280" d="M1388,-196C1388,-196 1287,-196 1287,-196 1281,-196 1275,-190 1275,-184 1275,-184 1275,-172 1275,-172 1275,-166 1281,-160 1287,-160 1287,-160 1388,-160 1388,-160 1394,-160 1400,-166 1400,-172 1400,-172 1400,-184 1400,-184 1400,-190 1394,-196 1388,-196"/>
<text text-anchor="middle" x="1337.5" y="-175.5" font-family="Helvetica" font-size="10.00">router / Pattern&#45;SIP 状态</text>
</g>
<!-- retrieval_dictionary&#45;&gt;router_pattern_sip -->
<g id="edge3" class="edge">
<title>retrieval_dictionary&#45;&gt;router_pattern_sip</title>
<path fill="none" stroke="#6b7280" d="M934.07,-178C1019.4,-178 1174,-178 1264.73,-178"/>
<polygon fill="#6b7280" stroke="#6b7280" points="1264.92,-181.5 1274.92,-178 1264.92,-174.5 1264.92,-181.5"/>
<text text-anchor="middle" x="1116" y="-180.8" font-family="Helvetica" font-size="9.00">slot routing</text>
</g>
<!-- scar_proposal -->
<g id="node7" class="node">
<title>scar_proposal</title>
<path fill="#fff7e6" stroke="#6b7280" d="M1849,-263C1849,-263 1798,-263 1798,-263 1792,-263 1786,-257 1786,-251 1786,-251 1786,-239 1786,-239 1786,-233 1792,-227 1798,-227 1798,-227 1849,-227 1849,-227 1855,-227 1861,-233 1861,-239 1861,-239 1861,-251 1861,-251 1861,-257 1855,-263 1849,-263"/>
<text text-anchor="middle" x="1823.5" y="-242.5" font-family="Helvetica" font-size="10.00">scar proposal</text>
</g>
<!-- router_pattern_sip&#45;&gt;scar_proposal -->
<g id="edge4" class="edge">
<title>router_pattern_sip&#45;&gt;scar_proposal</title>
<path fill="none" stroke="#6b7280" d="M1400.29,-186.55C1498.59,-200.16 1688.41,-226.44 1776.06,-238.57"/>
<polygon fill="#6b7280" stroke="#6b7280" points="1775.6,-242.04 1785.98,-239.94 1776.56,-235.11 1775.6,-242.04"/>
<text text-anchor="middle" x="1573" y="-223.8" font-family="Helvetica" font-size="9.00">scar evidence</text>
</g>
<!-- edema_proposal -->
<g id="node8" class="node">
<title>edema_proposal</title>
<path fill="#fff7e6" stroke="#6b7280" d="M1854.5,-198C1854.5,-198 1792.5,-198 1792.5,-198 1786.5,-198 1780.5,-192 1780.5,-186 1780.5,-186 1780.5,-174 1780.5,-174 1780.5,-168 1786.5,-162 1792.5,-162 1792.5,-162 1854.5,-162 1854.5,-162 1860.5,-162 1866.5,-168 1866.5,-174 1866.5,-174 1866.5,-186 1866.5,-186 1866.5,-192 1860.5,-198 1854.5,-198"/>
<text text-anchor="middle" x="1823.5" y="-177.5" font-family="Helvetica" font-size="10.00">edema proposal</text>
</g>
<!-- router_pattern_sip&#45;&gt;edema_proposal -->
<g id="edge5" class="edge">
<title>router_pattern_sip&#45;&gt;edema_proposal</title>
<path fill="none" stroke="#6b7280" d="M1400.01,-162.98C1427.38,-157.04 1460.11,-150.93 1490,-148 1563.43,-140.8 1582.9,-138.04 1656,-148 1664.23,-149.12 1665.91,-151.14 1674,-153 1705.73,-160.28 1741.64,-166.85 1770.2,-171.69"/>
<polygon fill="#6b7280" stroke="#6b7280" points="1769.93,-175.19 1780.37,-173.39 1771.08,-168.29 1769.93,-175.19"/>
<text text-anchor="middle" x="1573" y="-150.8" font-family="Helvetica" font-size="9.00">edema evidence</text>
</g>
<!-- prototype_memory -->
<g id="node5" class="node">
<title>prototype_memory</title>
<path fill="#fff7e6" stroke="#6b7280" d="M1410.5,-253C1410.5,-253 1264.5,-253 1264.5,-253 1258.5,-253 1252.5,-247 1252.5,-241 1252.5,-241 1252.5,-229 1252.5,-229 1252.5,-223 1258.5,-217 1264.5,-217 1264.5,-217 1410.5,-217 1410.5,-217 1416.5,-217 1422.5,-223 1422.5,-229 1422.5,-229 1422.5,-241 1422.5,-241 1422.5,-247 1416.5,-253 1410.5,-253"/>
<text text-anchor="middle" x="1337.5" y="-232.5" font-family="Helvetica" font-size="10.00">prototype memory 与 hard&#45;negative</text>
</g>
<!-- prototype_memory&#45;&gt;scar_proposal -->
<g id="edge6" class="edge">
<title>prototype_memory&#45;&gt;scar_proposal</title>
<path fill="none" stroke="#6b7280" d="M1422.53,-236.74C1524.73,-238.85 1693.69,-242.34 1775.38,-244.03"/>
<polygon fill="#6b7280" stroke="#6b7280" points="1775.78,-247.54 1785.85,-244.24 1775.92,-240.54 1775.78,-247.54"/>
<text text-anchor="middle" x="1573" y="-243.8" font-family="Helvetica" font-size="9.00">prototype support</text>
</g>
<!-- prototype_memory&#45;&gt;edema_proposal -->
<g id="edge7" class="edge">
<title>prototype_memory&#45;&gt;edema_proposal</title>
<path fill="none" stroke="#6b7280" d="M1422.6,-225.55C1439.86,-221.08 1457.24,-214.55 1472,-205 1483.2,-197.76 1478.08,-186.98 1490,-181 1537.62,-157.1 1689.46,-167.15 1770.45,-174.61"/>
<polygon fill="#6b7280" stroke="#6b7280" points="1770.16,-178.1 1780.44,-175.55 1770.81,-171.13 1770.16,-178.1"/>
<text text-anchor="middle" x="1573" y="-183.8" font-family="Helvetica" font-size="9.00">prototype support</text>
</g>
<!-- anatomy_prior -->
<g id="node6" class="node">
<title>anatomy_prior</title>
<path fill="#fff7e6" stroke="#6b7280" d="M1353.5,-308C1353.5,-308 1321.5,-308 1321.5,-308 1315.5,-308 1309.5,-302 1309.5,-296 1309.5,-296 1309.5,-284 1309.5,-284 1309.5,-278 1315.5,-272 1321.5,-272 1321.5,-272 1353.5,-272 1353.5,-272 1359.5,-272 1365.5,-278 1365.5,-284 1365.5,-284 1365.5,-296 1365.5,-296 1365.5,-302 1359.5,-308 1353.5,-308"/>
<text text-anchor="middle" x="1337.5" y="-287.5" font-family="Helvetica" font-size="10.00">解剖先验</text>
</g>
<!-- anatomy_prior&#45;&gt;scar_proposal -->
<g id="edge8" class="edge">
<title>anatomy_prior&#45;&gt;scar_proposal</title>
<path fill="none" stroke="#6b7280" d="M1365.84,-292.41C1421,-296.74 1549.45,-304.15 1656,-290 1697.29,-284.52 1742.87,-271.71 1775.89,-261.15"/>
<polygon fill="#6b7280" stroke="#6b7280" points="1777.28,-264.38 1785.71,-257.96 1775.12,-257.72 1777.28,-264.38"/>
<text text-anchor="middle" x="1573" y="-300.8" font-family="Helvetica" font-size="9.00">ROI prior</text>
</g>
<!-- anatomy_prior&#45;&gt;edema_proposal -->
<g id="edge9" class="edge">
<title>anatomy_prior&#45;&gt;edema_proposal</title>
<path fill="none" stroke="#6b7280" d="M1365.75,-287.72C1440.52,-281.35 1644.17,-263.34 1656,-255 1670.95,-244.47 1659.83,-229.56 1674,-218 1701.05,-195.93 1739.37,-186.5 1770.3,-182.56"/>
<polygon fill="#6b7280" stroke="#6b7280" points="1770.94,-186.01 1780.48,-181.42 1770.16,-179.05 1770.94,-186.01"/>
<text text-anchor="middle" x="1573" y="-278.8" font-family="Helvetica" font-size="9.00">ROI prior</text>
</g>
<!-- scar_refiner -->
<g id="node9" class="node">
<title>scar_refiner</title>
<path fill="#fff7e6" stroke="#6b7280" d="M2617,-256C2617,-256 2537,-256 2537,-256 2531,-256 2525,-250 2525,-244 2525,-244 2525,-232 2525,-232 2525,-226 2531,-220 2537,-220 2537,-220 2617,-220 2617,-220 2623,-220 2629,-226 2629,-232 2629,-232 2629,-244 2629,-244 2629,-250 2623,-256 2617,-256"/>
<text text-anchor="middle" x="2577" y="-235.5" font-family="Helvetica" font-size="10.00">scar soft&#45;ROI refiner</text>
</g>
<!-- scar_proposal&#45;&gt;scar_refiner -->
<g id="edge10" class="edge">
<title>scar_proposal&#45;&gt;scar_refiner</title>
<path fill="none" stroke="#6b7280" d="M1861,-244.66C1980.99,-243.54 2364.13,-239.97 2514.55,-238.57"/>
<polygon fill="#6b7280" stroke="#6b7280" points="2515.01,-242.07 2524.97,-238.48 2514.94,-235.07 2515.01,-242.07"/>
<text text-anchor="middle" x="2091.5" y="-245.8" font-family="Helvetica" font-size="9.00">scar ROI</text>
</g>
<!-- edema_refiner -->
<g id="node10" class="node">
<title>edema_refiner</title>
<path fill="#fff7e6" stroke="#6b7280" d="M2391,-198C2391,-198 2300,-198 2300,-198 2294,-198 2288,-192 2288,-186 2288,-186 2288,-174 2288,-174 2288,-168 2294,-162 2300,-162 2300,-162 2391,-162 2391,-162 2397,-162 2403,-168 2403,-174 2403,-174 2403,-186 2403,-186 2403,-192 2397,-198 2391,-198"/>
<text text-anchor="middle" x="2345.5" y="-177.5" font-family="Helvetica" font-size="10.00">edema soft&#45;ROI refiner</text>
</g>
<!-- edema_proposal&#45;&gt;edema_refiner -->
<g id="edge11" class="edge">
<title>edema_proposal&#45;&gt;edema_refiner</title>
<path fill="none" stroke="#6b7280" d="M1866.61,-180C1956.67,-180 2168.63,-180 2277.45,-180"/>
<polygon fill="#6b7280" stroke="#6b7280" points="2277.65,-183.5 2287.65,-180 2277.65,-176.5 2277.65,-183.5"/>
<text text-anchor="middle" x="2091.5" y="-182.8" font-family="Helvetica" font-size="9.00">edema ROI</text>
</g>
<!-- arbitration_final_output -->
<g id="node12" class="node">
<title>arbitration_final_output</title>
<path fill="#fff7e6" stroke="#6b7280" d="M2997,-198C2997,-198 2897,-198 2897,-198 2891,-198 2885,-192 2885,-186 2885,-186 2885,-174 2885,-174 2885,-168 2891,-162 2897,-162 2897,-162 2997,-162 2997,-162 3003,-162 3009,-168 3009,-174 3009,-174 3009,-186 3009,-186 3009,-192 3003,-198 2997,-198"/>
<text text-anchor="middle" x="2947" y="-177.5" font-family="Helvetica" font-size="10.00">arbitration 与 final output</text>
</g>
<!-- scar_refiner&#45;&gt;arbitration_final_output -->
<g id="edge13" class="edge">
<title>scar_refiner&#45;&gt;arbitration_final_output</title>
<path fill="none" stroke="#6b7280" d="M2629.22,-230.59C2687.03,-222.13 2783.87,-207.69 2867,-194 2869.53,-193.58 2872.1,-193.16 2874.69,-192.72"/>
<polygon fill="#6b7280" stroke="#6b7280" points="2875.51,-196.13 2884.78,-191 2874.34,-189.23 2875.51,-196.13"/>
<text text-anchor="middle" x="2725.5" y="-225.8" font-family="Helvetica" font-size="9.00">scar delta</text>
</g>
<!-- no_t2_safety -->
<g id="node11" class="node">
<title>no_t2_safety</title>
<path fill="#fff7e6" stroke="#6b7280" d="M2766,-198C2766,-198 2685,-198 2685,-198 2679,-198 2673,-192 2673,-186 2673,-186 2673,-174 2673,-174 2673,-168 2679,-162 2685,-162 2685,-162 2766,-162 2766,-162 2772,-162 2778,-168 2778,-174 2778,-174 2778,-186 2778,-186 2778,-192 2772,-198 2766,-198"/>
<text text-anchor="middle" x="2725.5" y="-177.5" font-family="Helvetica" font-size="10.00">no&#45;T2 edema 安全门</text>
</g>
<!-- edema_refiner&#45;&gt;no_t2_safety -->
<g id="edge12" class="edge">
<title>edema_refiner&#45;&gt;no_t2_safety</title>
<path fill="none" stroke="#6b7280" d="M2403.09,-180C2472.78,-180 2590.73,-180 2662.72,-180"/>
<polygon fill="#6b7280" stroke="#6b7280" points="2662.99,-183.5 2672.99,-180 2662.99,-176.5 2662.99,-183.5"/>
<text text-anchor="middle" x="2577" y="-182.8" font-family="Helvetica" font-size="9.00">T2 gate</text>
</g>
<!-- no_t2_safety&#45;&gt;arbitration_final_output -->
<g id="edge14" class="edge">
<title>no_t2_safety&#45;&gt;arbitration_final_output</title>
<path fill="none" stroke="#6b7280" d="M2778.24,-180C2807.06,-180 2843.37,-180 2874.83,-180"/>
<polygon fill="#6b7280" stroke="#6b7280" points="2874.86,-183.5 2884.86,-180 2874.86,-176.5 2874.86,-183.5"/>
<text text-anchor="middle" x="2831.5" y="-182.8" font-family="Helvetica" font-size="9.00">safe edema delta</text>
</g>
<!-- losses -->
<g id="node13" class="node">
<title>losses</title>
<path fill="#fff7e6" stroke="#6b7280" d="M403,-246C403,-246 341,-246 341,-246 335,-246 329,-240 329,-234 329,-234 329,-222 329,-222 329,-216 335,-210 341,-210 341,-210 403,-210 403,-210 409,-210 415,-216 415,-222 415,-222 415,-234 415,-234 415,-240 409,-246 403,-246"/>
<text text-anchor="middle" x="372" y="-225.5" font-family="Helvetica" font-size="10.00">loss 与优化目标</text>
</g>
<!-- losses&#45;&gt;retrieval_dictionary -->
<g id="edge15" class="edge">
<title>losses&#45;&gt;retrieval_dictionary</title>
<path fill="none" stroke="#6b7280" d="M415.03,-223.78C500.25,-215.22 694.2,-195.75 799.6,-185.17"/>
<polygon fill="#6b7280" stroke="#6b7280" points="800.23,-188.62 809.83,-184.14 799.53,-181.66 800.23,-188.62"/>
<text text-anchor="middle" x="610" y="-213.8" font-family="Helvetica" font-size="9.00">优化目标</text>
</g>
<!-- checkpoint_selection -->
<g id="node14" class="node">
<title>checkpoint_selection</title>
<path fill="#fff7e6" stroke="#6b7280" d="M2756.5,-115C2756.5,-115 2694.5,-115 2694.5,-115 2688.5,-115 2682.5,-109 2682.5,-103 2682.5,-103 2682.5,-91 2682.5,-91 2682.5,-85 2688.5,-79 2694.5,-79 2694.5,-79 2756.5,-79 2756.5,-79 2762.5,-79 2768.5,-85 2768.5,-91 2768.5,-91 2768.5,-103 2768.5,-103 2768.5,-109 2762.5,-115 2756.5,-115"/>
<text text-anchor="middle" x="2725.5" y="-94.5" font-family="Helvetica" font-size="10.00">checkpoint 选择</text>
</g>
<!-- checkpoint_selection&#45;&gt;arbitration_final_output -->
<g id="edge16" class="edge">
<title>checkpoint_selection&#45;&gt;arbitration_final_output</title>
<path fill="none" stroke="#6b7280" d="M2768.56,-112.91C2802.62,-125.78 2850.93,-144.05 2888.55,-158.28"/>
<polygon fill="#6b7280" stroke="#6b7280" points="2887.77,-161.72 2898.36,-161.99 2890.24,-155.18 2887.77,-161.72"/>
<text text-anchor="middle" x="2831.5" y="-150.8" font-family="Helvetica" font-size="9.00">formal decision</text>
</g>
<!-- cine_temporal -->
<g id="node15" class="node">
<title>cine_temporal</title>
<path fill="#fff7e6" stroke="#6b7280" d="M2383.5,-144C2383.5,-144 2307.5,-144 2307.5,-144 2301.5,-144 2295.5,-138 2295.5,-132 2295.5,-132 2295.5,-120 2295.5,-120 2295.5,-114 2301.5,-108 2307.5,-108 2307.5,-108 2383.5,-108 2383.5,-108 2389.5,-108 2395.5,-114 2395.5,-120 2395.5,-120 2395.5,-132 2395.5,-132 2395.5,-138 2389.5,-144 2383.5,-144"/>
<text text-anchor="middle" x="2345.5" y="-123.5" font-family="Helvetica" font-size="10.00">Cine temporal 次线</text>
</g>
<!-- cine_temporal&#45;&gt;checkpoint_selection -->
<g id="edge17" class="edge">
<title>cine_temporal&#45;&gt;checkpoint_selection</title>
<path fill="none" stroke="#6b7280" d="M2395.53,-122.24C2466.83,-116.77 2598.61,-106.66 2671.88,-101.04"/>
<polygon fill="#6b7280" stroke="#6b7280" points="2672.55,-104.5 2682.25,-100.24 2672.01,-97.52 2672.55,-104.5"/>
<text text-anchor="middle" x="2577" y="-117.8" font-family="Helvetica" font-size="9.00">local proxy only</text>
</g>
<!-- controller_continuity -->
<g id="node16" class="node">
<title>controller_continuity</title>
<path fill="#fff7e6" stroke="#6b7280" d="M1886.5,-90C1886.5,-90 1760.5,-90 1760.5,-90 1754.5,-90 1748.5,-84 1748.5,-78 1748.5,-78 1748.5,-66 1748.5,-66 1748.5,-60 1754.5,-54 1760.5,-54 1760.5,-54 1886.5,-54 1886.5,-54 1892.5,-54 1898.5,-60 1898.5,-66 1898.5,-66 1898.5,-78 1898.5,-78 1898.5,-84 1892.5,-90 1886.5,-90"/>
<text text-anchor="middle" x="1823.5" y="-69.5" font-family="Helvetica" font-size="10.00">controller continuity 与 finalizer</text>
</g>
<!-- mapper_wiki_observability -->
<g id="node17" class="node">
<title>mapper_wiki_observability</title>
<path fill="#fff7e6" stroke="#6b7280" d="M2397,-90C2397,-90 2294,-90 2294,-90 2288,-90 2282,-84 2282,-78 2282,-78 2282,-66 2282,-66 2282,-60 2288,-54 2294,-54 2294,-54 2397,-54 2397,-54 2403,-54 2409,-60 2409,-66 2409,-66 2409,-78 2409,-78 2409,-84 2403,-90 2397,-90"/>
<text text-anchor="middle" x="2345.5" y="-69.5" font-family="Helvetica" font-size="10.00">mapper/wiki observability</text>
</g>
<!-- controller_continuity&#45;&gt;mapper_wiki_observability -->
<g id="edge18" class="edge">
<title>controller_continuity&#45;&gt;mapper_wiki_observability</title>
<path fill="none" stroke="#6b7280" d="M1898.73,-72C1998.06,-72 2173.11,-72 2271.7,-72"/>
<polygon fill="#6b7280" stroke="#6b7280" points="2271.88,-75.5 2281.88,-72 2271.88,-68.5 2271.88,-75.5"/>
<text text-anchor="middle" x="2091.5" y="-74.8" font-family="Helvetica" font-size="9.00">receipts</text>
</g>
<!-- mapper_wiki_observability&#45;&gt;checkpoint_selection -->
<g id="edge19" class="edge">
<title>mapper_wiki_observability&#45;&gt;checkpoint_selection</title>
<path fill="none" stroke="#6b7280" d="M2409.04,-71.76C2471.5,-72.15 2570.18,-74.47 2655,-84 2660.57,-84.63 2666.35,-85.44 2672.11,-86.36"/>
<polygon fill="#6b7280" stroke="#6b7280" points="2671.94,-89.88 2682.38,-88.1 2673.11,-82.98 2671.94,-89.88"/>
<text text-anchor="middle" x="2577" y="-86.8" font-family="Helvetica" font-size="9.00">observability</text>
</g>
<!-- m10_followup_wave2_reconciliation -->
<g id="node18" class="node">
<title>m10_followup_wave2_reconciliation</title>
<path fill="#fff7e6" stroke="#6b7280" d="M2469,-36C2469,-36 2222,-36 2222,-36 2216,-36 2210,-30 2210,-24 2210,-24 2210,-12 2210,-12 2210,-6 2216,0 2222,0 2222,0 2469,0 2469,0 2475,0 2481,-6 2481,-12 2481,-12 2481,-24 2481,-24 2481,-30 2475,-36 2469,-36"/>
<text text-anchor="middle" x="2345.5" y="-15.5" font-family="Helvetica" font-size="10.00">M10 inherited Wave2 checkpoint/intervention reconciliation</text>
</g>
<!-- m10_followup_wave2_reconciliation&#45;&gt;checkpoint_selection -->
<g id="edge20" class="edge">
<title>m10_followup_wave2_reconciliation&#45;&gt;checkpoint_selection</title>
<path fill="none" stroke="#6b7280" d="M2481.29,-25.94C2536.15,-31.84 2599.57,-42.11 2655,-60 2665.86,-63.5 2677.02,-68.66 2687.14,-74.01"/>
<polygon fill="#6b7280" stroke="#6b7280" points="2685.65,-77.18 2696.1,-78.94 2689.02,-71.05 2685.65,-77.18"/>
<text text-anchor="middle" x="2577" y="-62.8" font-family="Helvetica" font-size="9.00">M10 all&#45;checkpoint selection evidence</text>
</g>
<!-- cine_followup_fidelity_contracts -->
<g id="node19" class="node">
<title>cine_followup_fidelity_contracts</title>
<path fill="#fff7e6" stroke="#6b7280" d="M493,-132C493,-132 251,-132 251,-132 245,-132 239,-126 239,-120 239,-120 239,-108 239,-108 239,-102 245,-96 251,-96 251,-96 493,-96 493,-96 499,-96 505,-102 505,-108 505,-108 505,-120 505,-120 505,-126 499,-132 493,-132"/>
<text text-anchor="middle" x="372" y="-111.5" font-family="Helvetica" font-size="10.00">CineMA/registration/temporal fail&#45;closed fidelity contracts</text>
</g>
<!-- cine_followup_adapter_control -->
<g id="node20" class="node">
<title>cine_followup_adapter_control</title>
<path fill="#fff7e6" stroke="#6b7280" d="M1017,-132C1017,-132 727,-132 727,-132 721,-132 715,-126 715,-120 715,-120 715,-108 715,-108 715,-102 721,-96 727,-96 727,-96 1017,-96 1017,-96 1023,-96 1029,-102 1029,-108 1029,-108 1029,-120 1029,-120 1029,-126 1023,-132 1017,-132"/>
<text text-anchor="middle" x="872" y="-111.5" font-family="Helvetica" font-size="10.00">CineMA adapted model versus capacity&#45;matched random&#45;init control</text>
</g>
<!-- cine_followup_fidelity_contracts&#45;&gt;cine_followup_adapter_control -->
<g id="edge21" class="edge">
<title>cine_followup_fidelity_contracts&#45;&gt;cine_followup_adapter_control</title>
<path fill="none" stroke="#6b7280" d="M505.15,-114C566.28,-114 639.56,-114 704.43,-114"/>
<polygon fill="#6b7280" stroke="#6b7280" points="704.77,-117.5 714.77,-114 704.77,-110.5 704.77,-117.5"/>
<text text-anchor="middle" x="610" y="-116.8" font-family="Helvetica" font-size="9.00">F2 freeze contracts gate F3 adapter/control</text>
</g>
<!-- cine_followup_registration -->
<g id="node21" class="node">
<title>cine_followup_registration</title>
<path fill="#fff7e6" stroke="#6b7280" d="M1460,-132C1460,-132 1215,-132 1215,-132 1209,-132 1203,-126 1203,-120 1203,-120 1203,-108 1203,-108 1203,-102 1209,-96 1215,-96 1215,-96 1460,-96 1460,-96 1466,-96 1472,-102 1472,-108 1472,-108 1472,-120 1472,-120 1472,-126 1466,-132 1460,-132"/>
<text text-anchor="middle" x="1337.5" y="-111.5" font-family="Helvetica" font-size="10.00">learned registration plus gate and SyN control requirement</text>
</g>
<!-- cine_followup_adapter_control&#45;&gt;cine_followup_registration -->
<g id="edge22" class="edge">
<title>cine_followup_adapter_control&#45;&gt;cine_followup_registration</title>
<path fill="none" stroke="#6b7280" d="M1029.27,-114C1082.12,-114 1140.85,-114 1192.69,-114"/>
<polygon fill="#6b7280" stroke="#6b7280" points="1192.96,-117.5 1202.96,-114 1192.96,-110.5 1192.96,-117.5"/>
<text text-anchor="middle" x="1116" y="-116.8" font-family="Helvetica" font-size="9.00">selected source feeds registration</text>
</g>
<!-- cine_followup_temporal_dictionary -->
<g id="node22" class="node">
<title>cine_followup_temporal_dictionary</title>
<path fill="#fff7e6" stroke="#6b7280" d="M1941,-144C1941,-144 1706,-144 1706,-144 1700,-144 1694,-138 1694,-132 1694,-132 1694,-120 1694,-120 1694,-114 1700,-108 1706,-108 1706,-108 1941,-108 1941,-108 1947,-108 1953,-114 1953,-120 1953,-120 1953,-132 1953,-132 1953,-138 1947,-144 1941,-144"/>
<text text-anchor="middle" x="1823.5" y="-123.5" font-family="Helvetica" font-size="10.00">learned temporal dictionary/model after registration gate</text>
</g>
<!-- cine_followup_registration&#45;&gt;cine_followup_temporal_dictionary -->
<g id="edge23" class="edge">
<title>cine_followup_registration&#45;&gt;cine_followup_temporal_dictionary</title>
<path fill="none" stroke="#6b7280" d="M1472.04,-117.31C1537.91,-118.94 1617.3,-120.91 1683.85,-122.56"/>
<polygon fill="#6b7280" stroke="#6b7280" points="1683.91,-126.06 1693.99,-122.81 1684.08,-119.07 1683.91,-126.06"/>
<text text-anchor="middle" x="1573" y="-124.8" font-family="Helvetica" font-size="9.00">registration gate allows temporal attempt</text>
</g>
<!-- cine_followup_temporal_dictionary&#45;&gt;cine_temporal -->
<g id="edge24" class="edge">
<title>cine_followup_temporal_dictionary&#45;&gt;cine_temporal</title>
<path fill="none" stroke="#6b7280" d="M1953.04,-126C2058.96,-126 2204.39,-126 2284.85,-126"/>
<polygon fill="#6b7280" stroke="#6b7280" points="2285.29,-129.5 2295.29,-126 2285.29,-122.5 2285.29,-129.5"/>
<text text-anchor="middle" x="2091.5" y="-128.8" font-family="Helvetica" font-size="9.00">temporal evidence missing keeps Cine unverified</text>
</g>
<!-- m10_followup_controller_finalizer -->
<g id="node23" class="node">
<title>m10_followup_controller_finalizer</title>
<path fill="#fff7e6" stroke="#6b7280" d="M1961,-36C1961,-36 1686,-36 1686,-36 1680,-36 1674,-30 1674,-24 1674,-24 1674,-12 1674,-12 1674,-6 1680,0 1686,0 1686,0 1961,0 1961,0 1967,0 1973,-6 1973,-12 1973,-12 1973,-24 1973,-24 1973,-30 1967,-36 1961,-36"/>
<text text-anchor="middle" x="1823.5" y="-15.5" font-family="Helvetica" font-size="10.00">M10 follow&#45;up controller finalizer and packet publication boundary</text>
</g>
<!-- m10_followup_controller_finalizer&#45;&gt;mapper_wiki_observability -->
<g id="edge25" class="edge">
<title>m10_followup_controller_finalizer&#45;&gt;mapper_wiki_observability</title>
<path fill="none" stroke="#6b7280" d="M1973.16,-33.44C2070.97,-43.6 2194.7,-56.44 2271.73,-64.44"/>
<polygon fill="#6b7280" stroke="#6b7280" points="2271.51,-67.94 2281.82,-65.49 2272.24,-60.98 2271.51,-67.94"/>
<text text-anchor="middle" x="2091.5" y="-59.8" font-family="Helvetica" font-size="9.00">controller packet and mapper final receipts</text>
</g>
</g>
</svg>
